<svg id="Capa_1" enable-background="new 0 0 502 502" height="512" viewBox="0 0 502 502" width="512" xmlns="http://www.w3.org/2000/svg" xmlns:xlink="http://www.w3.org/1999/xlink"><linearGradient id="lg1"><stop offset=".0223" stop-color="#fccb88"/><stop offset=".9994" stop-color="#f7ac3e"/></linearGradient><linearGradient id="SVGID_1_" gradientUnits="userSpaceOnUse" x1="251" x2="251" xlink:href="#lg1" y1="42.359" y2="313.357"/><linearGradient id="SVGID_2_" gradientUnits="userSpaceOnUse" x1="70.428" x2="431.572" y1="191.322" y2="191.322"><stop offset=".0223" stop-color="#f9f2ab"/><stop offset=".9994" stop-color="#f6e66a"/></linearGradient><linearGradient id="SVGID_3_" gradientUnits="userSpaceOnUse" x1="251" x2="251" y1="410.432" y2="261.53"><stop offset=".0223" stop-color="#a4e6ff"/><stop offset=".9994" stop-color="#5bd6fd"/></linearGradient><linearGradient id="SVGID_4_" gradientUnits="userSpaceOnUse" x1="251" x2="251" xlink:href="#lg1" y1="361.224" y2="459.641"/><g><path d="m480.786 313.357c-11.822-19.516-11.822-43.983 0-63.499 8.107-13.384 4.143-30.785-8.96-39.337l-.068-.044c-19.063-12.441-29.658-34.424-27.515-57.086l.011-.118c1.472-15.562-9.647-29.493-25.148-31.509l-.056-.007c-22.609-2.94-41.717-18.19-49.599-39.584l-.006-.015c-5.41-14.684-21.488-22.434-36.345-17.519l-.066.022c-21.614 7.151-45.411 1.729-61.795-14.078l-.09-.087c-11.243-10.847-29.055-10.847-40.298 0l-.09.087c-16.384 15.808-40.181 21.229-61.795 14.078l-.065-.021c-14.857-4.915-30.935 2.835-36.345 17.519l-.005.015c-7.882 21.394-26.989 36.644-49.599 39.584l-.056.007c-15.501 2.016-26.62 15.947-25.148 31.509l.011.118c2.143 22.662-8.452 44.645-27.515 57.086l-.069.045c-13.104 8.552-17.067 25.953-8.96 39.337 11.822 19.516 11.822 43.983 0 63.499z" fill="url(#SVGID_1_)"/><path d="m70.428 281.608c0-99.727 80.845-180.572 180.572-180.572s180.572 80.845 180.572 180.572z" fill="url(#SVGID_2_)"/><path d="m41.833 270.25c26.677-11.626 56.989-11.626 83.667 0 26.677 11.626 56.989 11.626 83.667 0 26.677-11.626 56.989-11.626 83.667 0 26.677 11.626 56.989 11.626 83.667 0 26.677-11.626 56.989-11.626 83.667 0 25.405 11.072 41.832 36.15 41.832 63.864v27.109l-251 49.209-251-49.208v-27.109c0-27.715 16.427-52.793 41.833-63.865z" fill="url(#SVGID_3_)"/><g><path d="m448.176 307.754c-1.333 0-2.688-.268-3.989-.835-5.621-2.449-11.522-4.084-17.539-4.86-5.478-.706-9.345-5.719-8.639-11.197.707-5.478 5.722-9.345 11.197-8.639 7.89 1.018 15.618 3.157 22.969 6.36 5.063 2.206 7.38 8.099 5.174 13.162-1.639 3.764-5.315 6.009-9.173 6.009z" fill="#bfe7f8"/></g><g><path d="m369.807 314.236c-4.324 0-8.311-2.827-9.591-7.186-1.556-5.299 1.479-10.856 6.778-12.412 7.328-2.151 14.779-4.761 21.985-7.285 1.541-.54 3.082-1.079 4.624-1.616 5.216-1.814 10.916.943 12.73 6.16 1.814 5.216-.944 10.916-6.16 12.73-1.528.531-3.055 1.066-4.583 1.601-7.444 2.607-15.142 5.304-22.962 7.6-.94.276-1.889.408-2.821.408z" fill="#bfe7f8"/></g><g><ellipse cx="154.18" cy="230.263" fill="#fd9bae" rx="16.455" ry="13.224"/><ellipse cx="347.82" cy="230.263" fill="#fd9bae" rx="16.455" ry="13.224"/><path d="m182.39 202.003c7.913 0 15.217 1.751 21.106 4.708 5.006 2.513 10.975-.883 11.419-6.466.125-1.568.138-3.167.032-4.79-1.091-16.685-14.985-30.01-31.7-30.438-18.412-.472-33.486 14.313-33.486 32.618 0 .929.039 1.849.116 2.758.465 5.519 6.452 8.807 11.401 6.321 5.89-2.959 13.196-4.711 21.112-4.711z" fill="#fff"/><path d="m251 241.485c-7.103 0-14.205-2.374-20.131-7.122-5.497-4.404-6.383-12.429-1.979-17.925 4.403-5.497 12.429-6.382 17.925-1.979 2.464 1.974 5.906 1.974 8.37 0 5.495-4.403 13.521-3.518 17.925 1.979 4.403 5.497 3.517 13.522-1.979 17.925-5.926 4.748-13.028 7.122-20.131 7.122z" fill="#383842"/><path d="m182.39 202.003c6.528 0 12.64 1.192 17.888 3.269 1.004-2.346 1.559-4.925 1.559-7.638 0-10.74-8.707-19.447-19.447-19.447s-19.447 8.707-19.447 19.447c0 2.713.555 5.292 1.559 7.638 5.248-2.077 11.36-3.269 17.888-3.269z" fill="#383842"/><path d="m319.61 202.003c7.913 0 15.217 1.751 21.106 4.708 5.006 2.513 10.975-.883 11.419-6.466.125-1.568.138-3.167.032-4.79-1.091-16.685-14.985-30.01-31.7-30.438-18.412-.472-33.486 14.313-33.486 32.618 0 .929.039 1.849.116 2.758.464 5.519 6.452 8.807 11.401 6.321 5.891-2.959 13.197-4.711 21.112-4.711z" fill="#fff"/><path d="m319.61 202.003c6.528 0 12.64 1.192 17.888 3.269 1.004-2.346 1.559-4.925 1.559-7.638 0-10.74-8.707-19.447-19.447-19.447s-19.447 8.707-19.447 19.447c0 2.713.555 5.292 1.559 7.638 5.248-2.077 11.36-3.269 17.888-3.269z" fill="#383842"/></g><path d="m0 361.224v57.123c0 22.806 18.488 41.294 41.294 41.294h419.412c22.806 0 41.294-18.488 41.294-41.294v-57.123z" fill="url(#SVGID_4_)"/><path d="m83.335 361.224h-83.335v27.347h83.335c7.552 0 13.673-6.122 13.673-13.673.001-7.553-6.121-13.674-13.673-13.674z" fill="#f7ac3e"/></g></svg>