<svg id="Capa_1" enable-background="new 0 0 502 502" height="512" viewBox="0 0 502 502" width="512" xmlns="http://www.w3.org/2000/svg" xmlns:xlink="http://www.w3.org/1999/xlink"><linearGradient id="SVGID_1_" gradientUnits="userSpaceOnUse" x1="251" x2="251" y1="488.698" y2="360.907"><stop offset=".0005580357" stop-color="#f7ac3e"/><stop offset=".9777" stop-color="#fccb88"/></linearGradient><linearGradient id="SVGID_2_" gradientUnits="userSpaceOnUse" x1="351.25" x2="502" y1="268.969" y2="268.969"><stop offset="0" stop-color="#00c4a2"/><stop offset=".9794" stop-color="#76e6d5"/></linearGradient><linearGradient id="lg1"><stop offset=".0206" stop-color="#76e6d5"/><stop offset="1" stop-color="#00c4a2"/></linearGradient><linearGradient id="SVGID_3_" gradientUnits="userSpaceOnUse" x1="0" x2="150.751" xlink:href="#lg1" y1="268.969" y2="268.969"/><linearGradient id="SVGID_4_" gradientUnits="userSpaceOnUse" x1="206.35" x2="81.526" xlink:href="#lg1" y1="188.218" y2="188.218"/><linearGradient id="SVGID_5_" gradientUnits="userSpaceOnUse" x1="420.474" x2="295.651" xlink:href="#lg1" y1="188.218" y2="188.218"/><linearGradient id="SVGID_6_" gradientUnits="userSpaceOnUse" x1="344.012" x2="157.988" xlink:href="#lg1" y1="178.122" y2="178.122"/><linearGradient id="SVGID_7_" gradientUnits="userSpaceOnUse" x1="251" x2="251" y1="379.305" y2="297.981"><stop offset=".0005580357" stop-color="#f6e66a"/><stop offset=".9777" stop-color="#f9f2ab"/></linearGradient><g><circle cx="88.643" cy="111.835" fill="#fd9bae" r="19.959"/><circle cx="413.357" cy="111.835" fill="#fd9bae" r="19.959"/><path d="m120.658 360.907 13.966 76.662c5.394 29.61 31.187 51.129 61.284 51.129h110.185c30.097 0 55.89-21.519 61.284-51.129l13.966-76.662z" fill="url(#SVGID_1_)"/><path d="m480.865 204.621c-15.918-8.367-35.498-4.924-47.561 8.412-33.128 36.626-81.475 47.445-82.055 47.57l.204-.042 15.771 77.291c3.557-.726 73.76-15.684 124.652-71.964 17.239-19.063 11.739-49.308-11.011-61.267z" fill="url(#SVGID_2_)"/><path d="m21.135 204.621c15.918-8.367 35.498-4.924 47.561 8.412 33.128 36.626 81.475 47.445 82.055 47.57l-.204-.042-15.771 77.291c-3.557-.726-73.76-15.684-124.652-71.964-17.239-19.063-11.739-49.308 11.011-61.267z" fill="url(#SVGID_3_)"/><path d="m189.932 33.495c-129.541 0-137.008 176.437-54.115 309.447h70.533z" fill="url(#SVGID_4_)"/><path d="m312.068 33.495c129.541 0 137.008 176.437 54.115 309.447h-70.533z" fill="url(#SVGID_5_)"/><path d="m295.651 342.942s134.273-329.64-44.651-329.64-44.651 329.64-44.651 329.64z" fill="url(#SVGID_6_)"/><g><path d="m311.693 109.192c-4.906 0-9.188-3.613-9.89-8.61-.805-5.73-1.953-12.424-4.368-18.635-2.001-5.147.549-10.943 5.697-12.944 5.147-2.002 10.943.549 12.944 5.696 3.175 8.167 4.625 16.636 5.533 23.101.768 5.469-3.043 10.526-8.512 11.294-.472.066-.941.098-1.404.098z" fill="#afefe5"/></g><g><path d="m286.586 62.377c-2.066 0-4.149-.638-5.938-1.96-2.304-1.704-4.856-3.139-7.585-4.265-5.105-2.106-7.537-7.953-5.43-13.058 2.106-5.106 7.953-7.536 13.058-5.43 4.242 1.75 8.229 3.995 11.849 6.672 4.441 3.284 5.378 9.546 2.094 13.986-1.961 2.652-4.985 4.055-8.048 4.055z" fill="#afefe5"/></g><g><ellipse cx="146.6" cy="236.902" fill="#fd9bae" rx="17.743" ry="14.259"/><ellipse cx="355.4" cy="236.902" fill="#fd9bae" rx="17.743" ry="14.259"/><path d="m177.018 206.43c8.533 0 16.408 1.888 22.759 5.076 5.398 2.71 11.834-.952 12.313-6.973.135-1.691.149-3.415.035-5.165-1.177-17.992-16.158-32.359-34.182-32.821-19.853-.509-36.107 15.433-36.107 35.172 0 1.002.042 1.994.125 2.974.501 5.951 6.957 9.497 12.294 6.816 6.35-3.19 14.228-5.079 22.763-5.079z" fill="#fff"/><path d="m251 249.003c-7.659 0-15.317-2.56-21.707-7.68-5.927-4.748-6.883-13.402-2.134-19.329 4.748-5.928 13.402-6.882 19.329-2.134 2.657 2.129 6.369 2.129 9.026 0 5.925-4.748 14.579-3.793 19.329 2.134 4.748 5.927 3.793 14.58-2.134 19.329-6.392 5.12-14.05 7.68-21.709 7.68z" fill="#383842"/><path d="m177.018 206.43c7.039 0 13.629 1.285 19.288 3.525 1.082-2.529 1.681-5.31 1.681-8.236 0-11.581-9.388-20.969-20.969-20.969s-20.969 9.388-20.969 20.969c0 2.925.599 5.706 1.681 8.236 5.659-2.24 12.249-3.525 19.288-3.525z" fill="#383842"/><path d="m324.982 206.43c8.533 0 16.408 1.888 22.759 5.076 5.398 2.71 11.834-.952 12.313-6.973.135-1.691.149-3.415.035-5.165-1.177-17.992-16.158-32.359-34.182-32.821-19.853-.509-36.107 15.433-36.107 35.172 0 1.002.042 1.994.125 2.974.501 5.951 6.957 9.497 12.294 6.816 6.35-3.19 14.227-5.079 22.763-5.079z" fill="#fff"/><path d="m324.982 206.43c7.039 0 13.629 1.285 19.288 3.525 1.082-2.529 1.681-5.31 1.681-8.236 0-11.581-9.388-20.969-20.969-20.969s-20.969 9.388-20.969 20.969c0 2.925.599 5.706 1.681 8.236 5.658-2.24 12.248-3.525 19.288-3.525z" fill="#383842"/></g><circle cx="158.809" cy="130.57" fill="#fd9bae" r="19.959"/><circle cx="343.191" cy="130.57" fill="#fd9bae" r="19.959"/><path d="m224.425 373.908-57.953-32.203-45.814 19.202 8.742 47.988c2.487.266 5.009.41 7.565.41h78.286c10.432 0 18.888-8.456 18.888-18.888 0-6.858-3.718-13.178-9.714-16.509z" fill="#f7ac3e"/><path d="m365.034 297.981h-228.068c-22.457 0-40.662 18.205-40.662 40.662 0 22.457 18.205 40.662 40.662 40.662h228.069c22.457 0 40.662-18.205 40.662-40.662 0-22.457-18.205-40.662-40.663-40.662z" fill="url(#SVGID_7_)"/></g></svg>