<svg id="Capa_1" enable-background="new 0 0 502 502" height="512" viewBox="0 0 502 502" width="512" xmlns="http://www.w3.org/2000/svg" xmlns:xlink="http://www.w3.org/1999/xlink"><linearGradient id="lg1"><stop offset=".0217" stop-color="#6a647f"/><stop offset="1" stop-color="#4f4c5f"/></linearGradient><linearGradient id="SVGID_1_" gradientUnits="userSpaceOnUse" x1="96.577" x2="221.171" xlink:href="#lg1" y1="43.884" y2="43.884"/><linearGradient id="lg2"><stop offset=".0212" stop-color="#ffb3dd"/><stop offset="1" stop-color="#ff88ca"/></linearGradient><linearGradient id="SVGID_2_" gradientUnits="userSpaceOnUse" x1="87.795" x2="174.997" xlink:href="#lg2" y1="82.726" y2="82.726"/><linearGradient id="lg3"><stop offset="0" stop-color="#4f4c5f"/><stop offset=".9783" stop-color="#6a647f"/></linearGradient><linearGradient id="SVGID_3_" gradientUnits="userSpaceOnUse" x1="325.997" x2="450.59" xlink:href="#lg3" y1="43.884" y2="43.884"/><linearGradient id="lg4"><stop offset="0" stop-color="#ff88ca"/><stop offset=".9788" stop-color="#ffb3dd"/></linearGradient><linearGradient id="SVGID_4_" gradientUnits="userSpaceOnUse" x1="372.17" x2="459.373" xlink:href="#lg4" y1="82.726" y2="82.726"/><linearGradient id="SVGID_5_" gradientUnits="userSpaceOnUse" x1="273.584" x2="273.584" xlink:href="#lg1" y1="293.251" y2="25.459"/><linearGradient id="SVGID_6_" gradientUnits="userSpaceOnUse" x1="42.627" x2="188.116" xlink:href="#lg2" y1="357.799" y2="357.799"/><linearGradient id="SVGID_7_" gradientUnits="userSpaceOnUse" x1="273.584" x2="273.584" xlink:href="#lg4" y1="502" y2="417.072"/><linearGradient id="SVGID_8_" gradientUnits="userSpaceOnUse" x1="273.584" x2="273.584" xlink:href="#lg4" y1="440.997" y2="265.546"/><linearGradient id="SVGID_9_" gradientUnits="userSpaceOnUse" x1="146.553" x2="222.455" xlink:href="#lg1" y1="270.938" y2="270.938"/><linearGradient id="SVGID_10_" gradientUnits="userSpaceOnUse" x1="324.713" x2="400.614" xlink:href="#lg3" y1="270.938" y2="270.938"/><g><path d="m96.577 17.833c7.428-10.313 19.368-17.122 32.816-17.681 67.169-2.825 91.778 34.463 91.778 34.463l-46.173 53.152z" fill="url(#SVGID_1_)"/><path d="m174.997 87.767-52.004 59.851c-34.852-32.656-37.437-78.659-34.133-109.598.799-7.518 3.544-14.406 7.717-20.187 39.125 3.185 70.953 32.177 78.42 69.934z" fill="url(#SVGID_2_)"/><path d="m450.59 17.833c-7.428-10.313-19.368-17.122-32.816-17.681-67.168-2.825-91.778 34.463-91.778 34.463l46.173 53.152z" fill="url(#SVGID_3_)"/><path d="m372.17 87.767 52.004 59.851c34.852-32.656 37.438-78.659 34.133-109.598-.799-7.518-3.544-14.406-7.717-20.187-39.125 3.185-70.952 32.177-78.42 69.934z" fill="url(#SVGID_4_)"/><path d="m150.608 95.357c-.133-4.874-2.129-9.511-5.577-12.959-8.792-8.792-23.547-6.972-29.874 3.731-5.805 9.822-10.724 20.227-14.639 31.108 5.296 10.769 12.583 21.113 22.475 30.381l28.551-18.047z" fill="#ff75c0"/><path d="m427.446 179.322c0 84.976-68.887 113.929-153.863 113.929s-153.863-28.953-153.863-113.929 68.888-153.863 153.864-153.863 153.862 68.887 153.862 153.863z" fill="url(#SVGID_5_)"/><g><path d="m358.626 98.262c-2.347 0-4.704-.822-6.604-2.494-4.601-4.051-9.518-7.661-14.616-10.732-4.731-2.85-6.255-8.995-3.405-13.726s8.995-6.256 13.726-3.405c6.121 3.688 12.013 8.012 17.511 12.852 4.145 3.649 4.547 9.968.898 14.114-1.977 2.244-4.736 3.391-7.51 3.391z" fill="#938ea3"/></g><g><path d="m312.337 71.669c-1.04 0-2.097-.163-3.138-.507-9.311-3.076-19.059-4.929-28.975-5.509-5.513-.322-9.722-5.053-9.4-10.566s5.052-9.72 10.566-9.4c11.652.681 23.119 2.862 34.082 6.484 5.244 1.732 8.091 7.388 6.358 12.632-1.388 4.202-5.297 6.866-9.493 6.866z" fill="#938ea3"/></g><g><path d="m188.116 430.05h-48.365c-39.703 0-75.775-23.443-91.9-59.723-8.322-18.725-6.624-40.16 4.541-57.341 11.165-17.18 30.064-27.438 50.554-27.438h30.899v39.934h-30.899c-7.022 0-13.244 3.377-17.07 9.265s-4.385 12.945-1.533 19.361c9.722 21.875 31.47 36.009 55.408 36.009h48.365z" fill="url(#SVGID_6_)"/></g><path d="m385.36 468.96c-6.238-17.901-15.499-27.963-15.499-27.963l-96.278-23.925-96.278 23.925s-9.261 10.063-15.499 27.963c-5.628 16.152 6.353 33.04 23.458 33.04h176.637c17.106 0 29.088-16.887 23.459-33.04z" fill="url(#SVGID_7_)"/><g fill="#ff75c0"><path d="m107.461 380.781c8.166 15.628 18.881 32.209 32.905 49.27h47.75v-39.934h-48.365c-11.664-.001-22.803-3.364-32.29-9.336z"/><path d="m84.006 310.593c.952 6.431 2.339 13.49 4.309 21.069 3.79-3.966 8.948-6.181 14.633-6.181h30.899v-39.934h-30.899c-6.122 0-12.1.922-17.774 2.665-1.845 7.225-2.287 14.821-1.168 22.381z"/></g><path d="m407.122 265.546h-267.077c-22.423 0-39.537 19.937-36.255 42.119 4.87 32.909 21.798 81.614 73.516 133.332h192.555c51.718-51.718 68.646-100.423 73.516-133.332 3.282-22.181-13.831-42.119-36.255-42.119z" fill="url(#SVGID_8_)"/><g><ellipse cx="185.844" cy="196.7" fill="#fd9bae" rx="14.912" ry="11.983"/><ellipse cx="361.324" cy="196.7" fill="#fd9bae" rx="14.912" ry="11.983"/><circle cx="211.408" cy="167.131" fill="#fff" r="29.569"/><circle cx="335.759" cy="167.131" fill="#fff" r="29.569"/><path d="m221.175 177.556c-2.647.001-5.213-1.404-6.579-3.888-.935-1.701-2.541-1.885-3.188-1.885s-2.253.184-3.188 1.885c-1.996 3.629-6.558 4.952-10.186 2.959-3.63-1.996-4.955-6.556-2.959-10.186 3.275-5.957 9.534-9.658 16.333-9.658s13.057 3.701 16.333 9.658c1.996 3.63.671 8.189-2.959 10.186-1.146.63-2.385.929-3.607.929z" fill="#383842"/><path d="m325.992 177.556c-1.222 0-2.46-.299-3.606-.929-3.63-1.996-4.955-6.556-2.959-10.186 3.275-5.957 9.533-9.658 16.332-9.658 6.798 0 13.057 3.7 16.333 9.658 1.996 3.629.671 8.189-2.958 10.186-3.63 1.993-8.19.67-10.186-2.959-.936-1.701-2.542-1.885-3.189-1.885-.646 0-2.252.184-3.188 1.885-1.365 2.483-3.932 3.888-6.579 3.888z" fill="#383842"/><g><path d="m285.235 206.869h-23.303c-6.498 0-11.765-5.267-11.765-11.765 0-6.498 5.267-11.765 11.765-11.765h23.303c6.497 0 11.765 5.267 11.765 11.765 0 6.498-5.267 11.765-11.765 11.765z" fill="#383842"/></g></g><g fill="#4f4c5f"><path d="m143.782 202.52c-9.938.505-25.804 4.455-37.505 22.445-2.086 3.207-1.657 7.562 1.303 9.986 3.478 2.849 8.545 1.969 10.903-1.703 8.305-12.94 19.443-15.662 26.062-16.015 3.359-.18 6.174-2.584 6.847-5.879.966-4.729-2.791-9.079-7.61-8.834z"/><path d="m151.358 176.824c-.831-.873-20.703-21.221-51.323-8.439-3.758 1.568-5.533 5.887-3.965 9.645s5.886 5.533 9.645 3.965c20.985-8.759 34.36 4.39 35 5.037 1.306 1.353 3.006 2.099 4.747 2.231 2.008.152 4.07-.515 5.643-2.013 2.948-2.809 3.062-7.477.253-10.426z"/><path d="m403.385 202.52c9.938.505 25.804 4.455 37.505 22.445 2.086 3.207 1.657 7.562-1.303 9.986-3.478 2.849-8.545 1.969-10.903-1.703-8.305-12.94-19.443-15.662-26.062-16.015-3.358-.18-6.174-2.584-6.847-5.879-.966-4.729 2.791-9.079 7.61-8.834z"/><path d="m395.809 176.824c.831-.873 20.703-21.221 51.323-8.439 3.758 1.568 5.533 5.887 3.965 9.645s-5.886 5.533-9.645 3.965c-20.985-8.759-34.36 4.39-35 5.037-1.306 1.353-3.006 2.099-4.747 2.231-2.008.152-4.07-.515-5.643-2.013-2.948-2.809-3.062-7.477-.253-10.426z"/></g><path d="m184.504 240.835c-20.96 0-37.951 16.991-37.951 37.951 0 12.291 9.964 22.255 22.255 22.255h31.391c12.291 0 22.255-9.964 22.255-22.255.001-20.96-16.991-37.951-37.95-37.951z" fill="url(#SVGID_9_)"/><path d="m362.663 240.835c20.96 0 37.951 16.991 37.951 37.951 0 12.291-9.964 22.255-22.255 22.255h-31.391c-12.291 0-22.255-9.964-22.255-22.255 0-20.96 16.991-37.951 37.95-37.951z" fill="url(#SVGID_10_)"/></g></svg>