<svg id="Capa_1" enable-background="new 0 0 502 502" height="512" viewBox="0 0 502 502" width="512" xmlns="http://www.w3.org/2000/svg" xmlns:xlink="http://www.w3.org/1999/xlink"><linearGradient id="SVGID_1_" gradientUnits="userSpaceOnUse" x1="251" x2="251" y1="313.925" y2="0"><stop offset="0" stop-color="#d86743"/><stop offset=".9788" stop-color="#e99780"/></linearGradient><linearGradient id="SVGID_2_" gradientUnits="userSpaceOnUse" x1="251" x2="251" y1="313.925" y2="502"><stop offset=".0212" stop-color="#f5385d"/><stop offset="1" stop-color="#ff889e"/></linearGradient><linearGradient id="lg1"><stop offset="0" stop-color="#f3bdae"/><stop offset=".9788" stop-color="#f0ac99"/></linearGradient><linearGradient id="SVGID_3_" gradientUnits="userSpaceOnUse" x1="173.616" x2="173.616" xlink:href="#lg1" y1="146.653" y2="34.947"/><linearGradient id="SVGID_4_" gradientUnits="userSpaceOnUse" x1="328.384" x2="328.384" xlink:href="#lg1" y1="146.653" y2="34.947"/><linearGradient id="SVGID_5_" gradientUnits="userSpaceOnUse" x1="173.616" x2="173.616" xlink:href="#lg1" y1="294.85" y2="183.144"/><linearGradient id="SVGID_6_" gradientUnits="userSpaceOnUse" x1="328.384" x2="328.384" xlink:href="#lg1" y1="294.85" y2="183.144"/><linearGradient id="SVGID_7_" gradientUnits="userSpaceOnUse" x1="251" x2="251" y1="366.399" y2="261.452"><stop offset="0" stop-color="#d0d7d7"/><stop offset="1" stop-color="#efefef"/></linearGradient><g><path d="m365.495 0h-228.99c-31.583 0-57.187 25.603-57.187 57.187v256.738l343.363-.757v-256.738c.001-30.827-25.603-56.43-57.186-56.43z" fill="url(#SVGID_1_)"/><path d="m69.054 313.925v114.664c0 40.544 32.867 73.411 73.411 73.411h217.07c40.544 0 73.411-32.867 73.411-73.411v-114.664z" fill="url(#SVGID_2_)"/><g><path d="m400.512 452.793c-.796 0-1.604-.096-2.412-.296-5.361-1.328-8.63-6.75-7.302-12.111.464-1.872.792-3.813.977-5.771.518-5.499 5.396-9.539 10.894-9.018 5.499.518 9.536 5.395 9.018 10.894-.277 2.943-.774 5.872-1.475 8.704-1.128 4.553-5.211 7.598-9.7 7.598z" fill="#ffb2c1"/></g><g><path d="m402.946 415.926c-5.523 0-10-4.477-10-10v-12.001c0-5.523 4.477-10 10-10s10 4.477 10 10v12.001c0 5.523-4.477 10-10 10z" fill="#ffb2c1"/></g><path d="m232.967 124.414c0 12.263-9.976 22.24-22.239 22.24h-74.222c-12.263 0-22.239-9.977-22.239-22.24v-67.227c0-12.263 9.977-22.239 22.239-22.239h74.222c12.263 0 22.239 9.977 22.239 22.239z" fill="url(#SVGID_3_)"/><path d="m269.033 124.414c0 12.263 9.976 22.24 22.239 22.24h74.222c12.263 0 22.24-9.977 22.24-22.24v-67.227c0-12.263-9.977-22.239-22.24-22.239h-74.222c-12.263 0-22.239 9.977-22.239 22.239z" fill="url(#SVGID_4_)"/><path d="m232.967 272.61c0 12.263-9.976 22.24-22.239 22.24h-74.222c-12.263 0-22.239-9.977-22.239-22.24v-67.227c0-12.263 9.977-22.24 22.239-22.24h74.222c12.263 0 22.239 9.977 22.239 22.24z" fill="url(#SVGID_5_)"/><path d="m269.033 272.61c0 12.263 9.976 22.24 22.239 22.24h74.222c12.263 0 22.24-9.977 22.24-22.24v-67.227c0-12.263-9.977-22.24-22.24-22.24h-74.222c-12.263 0-22.239 9.977-22.239 22.24z" fill="url(#SVGID_6_)"/><g><ellipse cx="145.921" cy="453.981" fill="#fd9bae" rx="17.859" ry="14.352"/><ellipse cx="356.079" cy="453.981" fill="#fd9bae" rx="17.859" ry="14.352"/><circle cx="176.537" cy="418.569" fill="#fff" r="35.412"/><ellipse cx="190.844" cy="418.569" fill="#383842" rx="21.106" ry="21.106" transform="matrix(.23 -.973 .973 .23 -260.375 508.14)"/><circle cx="325.463" cy="418.569" fill="#fff" r="35.412"/><g fill="#383842"><ellipse cx="339.695" cy="418.569" rx="21.106" ry="21.106" transform="matrix(.707 -.707 .707 .707 -196.479 362.797)"/><ellipse cx="251" cy="445.414" rx="15.844" ry="20.747"/></g></g><path d="m119.692 345.025-19.688-10.578-30.95-20.522v71.578c10.588 7.077 23.029 10.896 36.01 10.896 1.028 0 2.052-.024 3.073-.072 14.527-.68 25.929-12.72 25.929-27.263-.001-10.048-5.523-19.283-14.374-24.039z" fill="#f5385d"/><path d="m407.912 261.452h-313.824c-20.805 0-37.671 16.866-37.671 37.671 0 21.645 8.776 42.366 24.323 57.427 13.556 13.132 35.089 13.132 48.646 0 13.556-13.133 35.089-13.133 48.645 0 13.556 13.132 35.089 13.132 48.646 0 13.556-13.133 35.089-13.133 48.646 0 13.556 13.132 35.089 13.132 48.646 0 13.556-13.133 35.089-13.133 48.645 0 13.556 13.132 35.089 13.132 48.646 0 15.547-15.061 24.323-35.781 24.323-57.427-.001-20.806-16.866-37.671-37.671-37.671z" fill="url(#SVGID_7_)"/></g></svg>