<svg id="Capa_1" enable-background="new 0 0 502 502" height="512" viewBox="0 0 502 502" width="512" xmlns="http://www.w3.org/2000/svg" xmlns:xlink="http://www.w3.org/1999/xlink"><linearGradient id="lg1"><stop offset=".0206" stop-color="#76e6d5"/><stop offset="1" stop-color="#00c4a2"/></linearGradient><linearGradient id="SVGID_1_" gradientUnits="userSpaceOnUse" x1="129.595" x2="312.835" xlink:href="#lg1" y1="183.371" y2="183.371"/><linearGradient id="SVGID_2_" gradientUnits="userSpaceOnUse" x1="51.916" x2="370.251" xlink:href="#lg1" y1="337.488" y2="337.488"/><linearGradient id="lg2"><stop offset="0" stop-color="#ff889e"/><stop offset=".9788" stop-color="#f5385d"/></linearGradient><linearGradient id="SVGID_3_" gradientUnits="userSpaceOnUse" x1="90.755" x2="400.724" xlink:href="#lg2" y1="271.208" y2="271.208"/><linearGradient id="SVGID_4_" gradientUnits="userSpaceOnUse" x1="42.008" x2="230.205" xlink:href="#lg2" y1="415.363" y2="415.363"/><linearGradient id="lg3"><stop offset=".0223" stop-color="#f9f2ab"/><stop offset=".9994" stop-color="#f6e66a"/></linearGradient><linearGradient id="SVGID_5_" gradientUnits="userSpaceOnUse" x1="165.475" x2="446.969" xlink:href="#lg3" y1="195.778" y2="195.778"/><linearGradient id="SVGID_6_" gradientUnits="userSpaceOnUse" x1="0" x2="121.14" xlink:href="#lg3" y1="441.43" y2="441.43"/><linearGradient id="lg4"><stop offset=".0223" stop-color="#a4e6ff"/><stop offset=".9994" stop-color="#5bd6fd"/></linearGradient><linearGradient id="SVGID_7_" gradientUnits="userSpaceOnUse" x1="199.904" x2="264.996" xlink:href="#lg4" y1="44.372" y2="44.372"/><linearGradient id="SVGID_8_" gradientUnits="userSpaceOnUse" x1="414.95" x2="480.042" xlink:href="#lg4" y1="54.504" y2="54.504"/><linearGradient id="SVGID_9_" gradientUnits="userSpaceOnUse" x1="302.755" x2="369.494" xlink:href="#lg2" y1="38.756" y2="38.756"/><linearGradient id="SVGID_10_" gradientUnits="userSpaceOnUse" x1="425.083" x2="490.174" xlink:href="#lg4" y1="269.55" y2="269.55"/><linearGradient id="SVGID_11_" gradientUnits="userSpaceOnUse" x1="351.226" x2="392.443" xlink:href="#lg2" y1="130.166" y2="130.166"/><linearGradient id="SVGID_12_" gradientUnits="userSpaceOnUse" x1="424.488" x2="502" xlink:href="#lg2" y1="165.876" y2="165.876"/><g><path d="m176.675 101.281-47.08 101.689 97.702 62.49 85.538-28.018z" fill="url(#SVGID_1_)"/><path d="m227.297 265.46-136.542 21.393-38.839 83.883 67.879 38.779 110.41-5.238 140.046-64.832z" fill="url(#SVGID_2_)"/><g><path d="m219.931 387.591c-3.776 0-7.39-2.149-9.081-5.802-2.32-5.012-.138-10.956 4.874-13.276l11.747-5.438c5.012-2.32 10.956-.138 13.276 4.874s.138 10.956-4.874 13.276l-11.747 5.438c-1.36.63-2.789.928-4.195.928z" fill="#afefe5"/></g><g><path d="m259.335 367.737c-3.937 0-7.669-2.34-9.255-6.207-2.096-5.11.347-10.951 5.456-13.047 7.38-3.027 14.483-6.506 22.003-10.19l.692-.339c4.96-2.429 10.95-.377 13.379 4.583s.377 10.95-4.583 13.379l-.69.338c-7.481 3.664-15.218 7.454-23.209 10.732-1.243.51-2.529.751-3.793.751z" fill="#afefe5"/></g><path d="m312.835 237.442-183.24-34.472-38.84 83.883 279.496 52.592.007-.006 30.466-14.108z" fill="url(#SVGID_3_)"/><path d="m51.916 370.736-9.908 21.389 67.866 67.866 120.331-55.714z" fill="url(#SVGID_4_)"/><path d="m236.685 173.907-15.47-56.013-44.541-16.612-20.43 44.128 47.616 47.616c6.822 6.822 17.587 7.68 25.403 2.026 6.647-4.808 9.606-13.238 7.422-21.145z" fill="#00c4a2"/><path d="m435.126 267.498-200.624-200.624c-15.791-15.791-41.393-15.791-57.184 0-15.791 15.791-15.791 41.393 0 57.184l200.624 200.624c15.791 15.791 41.393 15.791 57.184 0 15.791-15.791 15.791-41.393 0-57.184z" fill="url(#SVGID_5_)"/><path d="m110.443 439.653-48.096-48.096c-14.263-14.263-37.387-14.263-51.65 0-14.263 14.263-14.263 37.387 0 51.65l48.096 48.096c14.263 14.263 37.387 14.263 51.65 0 14.262-14.263 14.262-37.387 0-51.65z" fill="url(#SVGID_6_)"/><circle cx="232.45" cy="44.372" fill="url(#SVGID_7_)" r="32.546"/><circle cx="447.496" cy="54.504" fill="url(#SVGID_8_)" r="32.546"/><path d="m356.174 1.176-19.38-1.151c-6.722-.399-12.792 4.002-14.496 10.517-2.598 9.937-7.801 19.074-15.175 26.449-.028.028-.056.056-.083.083-4.823 4.804-5.715 12.282-1.955 17.957l10.719 16.174c4.815 7.265 14.957 8.439 21.388 2.556 1.166-1.066 2.308-2.159 3.425-3.276 14.451-14.451 24.302-32.64 28.561-52.363 1.816-8.411-4.415-16.436-13.004-16.946z" fill="url(#SVGID_9_)"/><circle cx="457.628" cy="269.55" fill="url(#SVGID_10_)" r="32.546"/><circle cx="371.834" cy="130.166" fill="url(#SVGID_11_)" r="20.608"/><path d="m501.975 165.206-1.151-19.38c-.51-8.59-8.535-14.821-16.946-13.004-19.723 4.259-37.913 14.11-52.363 28.561-1.117 1.117-2.21 2.259-3.276 3.425-5.883 6.431-4.709 16.574 2.556 21.388l16.174 10.719c5.675 3.761 13.152 2.869 17.957-1.955.028-.028.056-.056.083-.084 7.375-7.375 16.512-12.578 26.449-15.175 6.515-1.702 10.916-7.772 10.517-14.495z" fill="url(#SVGID_12_)"/></g></svg>