<svg id="Capa_1" enable-background="new 0 0 502 502" height="512" viewBox="0 0 502 502" width="512" xmlns="http://www.w3.org/2000/svg" xmlns:xlink="http://www.w3.org/1999/xlink"><linearGradient id="SVGID_1_" gradientUnits="userSpaceOnUse" x1="326.729" x2="450.464" y1="113.92" y2="113.92"><stop offset=".0212" stop-color="#e99780"/><stop offset="1" stop-color="#d86743"/></linearGradient><linearGradient id="lg1"><stop offset="0" stop-color="#d86743"/><stop offset=".9788" stop-color="#e99780"/></linearGradient><linearGradient id="SVGID_2_" gradientUnits="userSpaceOnUse" x1="51.536" x2="175.271" xlink:href="#lg1" y1="113.92" y2="113.92"/><linearGradient id="lg2"><stop offset=".0005580357" stop-color="#5bd6fd"/><stop offset=".9777" stop-color="#a4e6ff"/></linearGradient><linearGradient id="SVGID_3_" gradientUnits="userSpaceOnUse" x1="122.689" x2="122.689" xlink:href="#lg2" y1="502" y2="272.874"/><linearGradient id="SVGID_4_" gradientUnits="userSpaceOnUse" x1="296.735" x2="296.735" xlink:href="#lg2" y1="502" y2="251.705"/><linearGradient id="SVGID_5_" gradientUnits="userSpaceOnUse" x1="199.248" x2="199.248" y1="502" y2="251.705"><stop offset="0" stop-color="#ff88ca"/><stop offset=".9788" stop-color="#ffb3dd"/></linearGradient><linearGradient id="SVGID_6_" gradientUnits="userSpaceOnUse" x1="391.928" x2="391.928" y1="272.874" y2="502"><stop offset=".0212" stop-color="#ffb3dd"/><stop offset="1" stop-color="#ff88ca"/></linearGradient><linearGradient id="SVGID_7_" gradientUnits="userSpaceOnUse" x1="251" x2="251" xlink:href="#lg1" y1="319.973" y2="70.676"/><linearGradient id="SVGID_8_" gradientUnits="userSpaceOnUse" x1="251" x2="251" y1="31.241" y2="129.849"><stop offset="0" stop-color="#ff889e"/><stop offset=".9788" stop-color="#f5385d"/></linearGradient><g><g><path d="m239.316 49.423c-2.149-11.821 1.176-37.208 29.137-48.681 5.043-2.07 10.808.342 12.877 5.384 2.068 5.042-.342 10.807-5.385 12.876-19.613 8.048-17.498 25.076-17.193 26.991l-.017-.1z" fill="#fd5f7e"/></g><circle cx="388.596" cy="113.92" fill="url(#SVGID_1_)" r="61.868"/><circle cx="388.596" cy="113.92" fill="#ffc8e5" r="32.373"/><circle cx="113.404" cy="113.92" fill="url(#SVGID_2_)" r="61.868"/><circle cx="113.404" cy="113.92" fill="#ffc8e5" r="32.373"/><path d="m172.453 502h-11.843c-39.209 0-73.119-27.288-81.517-65.579l-31.402-143.138 99.804-20.409 50.192 103.979z" fill="url(#SVGID_3_)"/><path d="m354.495 272.874 15.366 114.563-40.314 114.563h-78.547l-27.39-125.147 27.39-125.148z" fill="url(#SVGID_4_)"/><path d="m251 251.705v250.295h-78.547l-24.958-229.126z" fill="url(#SVGID_5_)"/><path d="m454.309 293.283-31.403 143.138c-8.398 38.291-42.308 65.579-81.517 65.579h-11.843l24.949-229.126z" fill="url(#SVGID_6_)"/><path d="m113.084 300.663-26.252-15.384-39.141 8.004 11.089 50.547c8.918 3.669 18.51 5.752 28.453 6.091 1.007.034 2.018.052 3.032.052 4.742 0 9.442-.38 14.064-1.128 12.527-2.027 21.643-13.002 21.643-25.692 0-9.253-4.904-17.813-12.888-22.49z" fill="#5bd6fd"/><path d="m464.608 261.765c-4.503-54.627-33.751-191.089-213.608-191.089s-209.105 136.462-213.608 191.089c-2.496 30.278 20.502 57.137 50.864 58.174.667.023 1.337.034 2.01.034 11.7 0 22.587-3.474 31.688-9.445 13.307-8.731 30.473-8.731 43.78 0 9.101 5.972 19.988 9.445 31.688 9.445 11.7 0 22.587-3.474 31.688-9.445 13.307-8.731 30.473-8.731 43.779 0 9.101 5.972 19.988 9.445 31.688 9.445 11.7 0 22.587-3.474 31.688-9.445 13.307-8.731 30.473-8.731 43.78 0 9.101 5.972 19.988 9.445 31.688 9.445.673 0 1.343-.012 2.01-.034 30.364-1.037 53.361-27.896 50.865-58.174z" fill="url(#SVGID_7_)"/><g><path d="m429.779 242.807c-4.538 0-8.646-3.109-9.727-7.718-2.046-8.72-4.651-17.591-7.965-27.121-1.814-5.216.944-10.916 6.161-12.73 5.216-1.814 10.916.944 12.73 6.161 3.545 10.193 6.34 19.719 8.546 29.122 1.261 5.377-2.075 10.758-7.452 12.02-.769.18-1.537.266-2.293.266z" fill="#f5ccc2"/></g><g><path d="m406.731 185.38c-3.479 0-6.858-1.817-8.701-5.057-2.942-5.17-6.172-10.139-9.601-14.767-3.288-4.438-2.356-10.7 2.081-13.988s10.7-2.356 13.988 2.081c3.906 5.271 7.579 10.918 10.916 16.784 2.731 4.801 1.054 10.906-3.747 13.637-1.561.889-3.26 1.31-4.936 1.31z" fill="#f5ccc2"/></g><g><ellipse cx="144.134" cy="195.516" fill="#fd9bae" rx="18.162" ry="14.596"/><ellipse cx="357.866" cy="195.516" fill="#fd9bae" rx="18.162" ry="14.596"/><circle cx="175.271" cy="159.502" fill="#fff" r="36.014"/><circle cx="326.729" cy="159.502" fill="#fff" r="36.014"/><g fill="#383842"><circle cx="175.271" cy="159.502" r="21.465"/><circle cx="326.729" cy="159.502" r="21.465"/></g></g><path d="m272.571 153.719c18.698 8.287 31.742 27.005 31.742 48.763v2.649c0 14.721-5.965 28.046-15.616 37.697s-22.976 15.616-37.697 15.616c-29.441 0-53.313-23.872-53.313-53.313v-2.649c0-21.758 13.045-40.477 31.742-48.763z" fill="#ffd3bc"/><path d="m251 202.862c-6.121 0-12.239-2.314-17.232-6.943-2.025-1.877-2.145-5.041-.267-7.066s5.041-2.145 7.066-.267c6.143 5.695 14.724 5.695 20.867 0 2.024-1.877 5.188-1.758 7.066.267 1.877 2.025 1.758 5.188-.268 7.066-4.992 4.628-11.113 6.943-17.232 6.943z" fill="#383842"/><path d="m272.571 153.719c-2.092 9.984-10.962 17.49-21.571 17.49-10.608 0-19.478-7.506-21.571-17.49 6.59-2.925 13.888-4.549 21.571-4.549s14.981 1.624 21.571 4.549z" fill="#383842"/><circle cx="251" cy="80.545" fill="url(#SVGID_8_)" r="49.304"/></g></svg>