<svg id="Capa_1" enable-background="new 0 0 502 502" height="512" viewBox="0 0 502 502" width="512" xmlns="http://www.w3.org/2000/svg" xmlns:xlink="http://www.w3.org/1999/xlink"><linearGradient id="lg1"><stop offset=".0223" stop-color="#fccb88"/><stop offset=".9994" stop-color="#f7ac3e"/></linearGradient><linearGradient id="SVGID_1_" gradientUnits="userSpaceOnUse" x1="167.456" x2="378.083" xlink:href="#lg1" y1="506.583" y2="295.956"/><linearGradient id="SVGID_2_" gradientUnits="userSpaceOnUse" x1="272.77" x2="272.77" xlink:href="#lg1" y1="381.503" y2="263.525"/><linearGradient id="SVGID_3_" gradientUnits="userSpaceOnUse" x1="272.77" x2="272.77" y1="356.728" y2="132.287"><stop offset="0" stop-color="#d86743"/><stop offset=".9788" stop-color="#e99780"/></linearGradient><linearGradient id="SVGID_4_" gradientUnits="userSpaceOnUse" x1="272.77" x2="272.77" y1="224.441" y2="0"><stop offset=".0212" stop-color="#ffb3dd"/><stop offset="1" stop-color="#ff88ca"/></linearGradient><linearGradient id="lg2"><stop offset=".0212" stop-color="#e99780"/><stop offset="1" stop-color="#d86743"/></linearGradient><linearGradient id="SVGID_5_" gradientUnits="userSpaceOnUse" x1="43.707" x2="106.204" xlink:href="#lg2" y1="57.592" y2="57.592"/><linearGradient id="SVGID_6_" gradientUnits="userSpaceOnUse" x1="85.667" x2="140.855" xlink:href="#lg2" y1="113.213" y2="113.213"/><linearGradient id="lg3"><stop offset="0" stop-color="#efefef"/><stop offset="1" stop-color="#d0d7d7"/></linearGradient><linearGradient id="SVGID_7_" gradientUnits="userSpaceOnUse" x1="64.692" x2="127.178" xlink:href="#lg3" y1="87.228" y2="87.228"/><linearGradient id="SVGID_8_" gradientUnits="userSpaceOnUse" x1="30.043" x2="85.219" xlink:href="#lg3" y1="31.605" y2="31.605"/><g><path d="m115.433 347.979 16.988 109.12c4.024 25.843 26.278 44.901 52.432 44.901h175.833c26.155 0 48.409-19.058 52.432-44.901l16.988-109.12z" fill="url(#SVGID_1_)"/><path d="m209.637 375.934-46.812-27.955h-47.393l9.818 63.063c2.725.297 5.49.46 8.293.46h66.281c10.569 0 19.138-8.568 19.138-19.138.001-6.736-3.541-12.976-9.325-16.43z" fill="#f7ac3e"/><path d="m411.995 263.525h-278.451c-25.484 0-46.143 20.659-46.143 46.143v25.692c0 25.484 20.659 46.143 46.143 46.143h278.452c25.484 0 46.143-20.659 46.143-46.143v-25.692c-.001-25.484-20.66-46.143-46.144-46.143z" fill="url(#SVGID_2_)"/><path d="m470.884 249.363c-12.98-56.941-56.627-170.845-198.114-170.845s-185.135 113.904-198.115 170.845c-4.163 18.264 4.047 37.117 20.175 46.647 15.68 9.266 35.16 9.266 50.84 0 15.68-9.266 35.16-9.266 50.84 0 15.68 9.266 35.16 9.266 50.84 0 15.68-9.266 35.16-9.266 50.84 0 15.68 9.266 35.16 9.266 50.84 0 15.68-9.266 35.16-9.266 50.84 0 15.68 9.266 35.16 9.266 50.84 0 16.127-9.53 24.337-28.383 20.174-46.647z" fill="url(#SVGID_3_)"/><path d="m156.363 203.805-33.811-57.612c-25.59 31.631-39.026 68.191-45.976 95.252.98.643 1.974 1.273 2.992 1.875 12.313 7.276 26.38 11.122 40.682 11.122 4.327 0 8.632-.352 12.873-1.044 16.046-2.619 27.809-16.522 27.809-32.781 0-5.911-1.578-11.715-4.569-16.812z" fill="#da6743"/><path d="m470.884 170.845c-12.98-56.941-56.627-170.845-198.114-170.845s-185.135 113.904-198.115 170.845c-4.163 18.264 4.047 37.117 20.175 46.647 15.68 9.266 35.16 9.266 50.84 0 15.68-9.266 35.16-9.266 50.84 0 15.68 9.266 35.16 9.266 50.84 0 15.68-9.266 35.16-9.266 50.84 0 15.68 9.266 35.16 9.266 50.84 0 15.68-9.266 35.16-9.266 50.84 0 15.68 9.266 35.16 9.266 50.84 0 16.127-9.53 24.337-28.382 20.174-46.647z" fill="url(#SVGID_4_)"/><g><path d="m358.463 61.361c-1.726 0-3.474-.447-5.068-1.387-6.716-3.958-13.736-7.352-20.865-10.085-5.157-1.978-7.734-7.761-5.757-12.917s7.761-7.734 12.917-5.757c8.163 3.13 16.191 7.009 23.861 11.53 4.758 2.804 6.341 8.935 3.537 13.692-1.865 3.164-5.201 4.924-8.625 4.924z" fill="#ffc8e5"/></g><g><path d="m303.523 41.078c-.59 0-1.188-.053-1.79-.161-3.105-.561-6.304-1.048-9.509-1.448-5.48-.684-9.369-5.681-8.685-11.161s5.68-9.362 11.161-8.686c3.565.445 7.128.987 10.59 1.613 5.435.982 9.045 6.184 8.063 11.619-.875 4.834-5.086 8.224-9.83 8.224z" fill="#ffc8e5"/></g><g><ellipse cx="166.805" cy="151.073" fill="#ff75c0" rx="18.009" ry="14.473"/><ellipse cx="378.734" cy="151.073" fill="#ff75c0" rx="18.009" ry="14.473"/><circle cx="197.679" cy="115.363" fill="#fff" r="35.711"/><circle cx="347.86" cy="115.363" fill="#fff" r="35.711"/><g fill="#383842"><circle cx="197.679" cy="115.363" r="21.284"/><circle cx="347.86" cy="115.363" r="21.284"/></g><path d="m259.053 140.61c8.017 7.433 19.417 7.433 27.433 0" fill="none" stroke="#383842" stroke-linecap="round" stroke-miterlimit="10" stroke-width="10"/></g><path d="m106.204 57.714-12.624 23.574-28.888 5.813-20.985-29.642 13.924-25.855 27.588-3.521z" fill="url(#SVGID_5_)"/><path d="m133.017 127.717-11.22 7.944c-8.361 5.92-19.947 3.937-25.867-4.425l-10.264-14.495 16.025-22.662 25.487-6.724 10.264 14.495c5.92 8.361 3.947 19.947-4.425 25.867z" fill="url(#SVGID_6_)"/><path d="m127.178 87.355-41.512 29.387-20.974-29.641 41.512-29.387z" fill="url(#SVGID_7_)"/><path d="m85.219 28.083-41.512 29.376-10.253-14.484c-5.92-8.372-3.937-19.947 4.425-25.867l11.22-7.944c8.372-5.92 19.947-3.947 25.867 4.425z" fill="url(#SVGID_8_)"/></g></svg>