<svg id="Capa_1" enable-background="new 0 0 502 502" height="512" viewBox="0 0 502 502" width="512" xmlns="http://www.w3.org/2000/svg" xmlns:xlink="http://www.w3.org/1999/xlink"><linearGradient id="lg1"><stop offset=".0212" stop-color="#ba99db"/><stop offset="1" stop-color="#8959c3"/></linearGradient><linearGradient id="SVGID_1_" gradientUnits="userSpaceOnUse" x1="231.674" x2="231.674" xlink:href="#lg1" y1="222.309" y2="318.343"/><linearGradient id="SVGID_2_" gradientUnits="userSpaceOnUse" x1="136.92" x2="136.92" xlink:href="#lg1" y1="311.105" y2="419.054"/><linearGradient id="SVGID_3_" gradientUnits="userSpaceOnUse" x1="51.049" x2="51.049" xlink:href="#lg1" y1="399.902" y2="502"/><linearGradient id="SVGID_4_" gradientUnits="userSpaceOnUse" x1="333.257" x2="333.257" y1="0" y2="337.486"><stop offset=".0223" stop-color="#fccb88"/><stop offset=".9994" stop-color="#f7ac3e"/></linearGradient><linearGradient id="lg2"><stop offset="0" stop-color="#ff88ca"/><stop offset=".9788" stop-color="#ffb3dd"/></linearGradient><linearGradient id="SVGID_5_" gradientUnits="userSpaceOnUse" x1="184.293" x2="184.293" xlink:href="#lg2" y1="368.707" y2="266.707"/><linearGradient id="SVGID_6_" gradientUnits="userSpaceOnUse" x1="89.547" x2="89.547" xlink:href="#lg2" y1="469.402" y2="355.503"/><linearGradient id="lg3"><stop offset=".0223" stop-color="#f9f2ab"/><stop offset=".9994" stop-color="#f6e66a"/></linearGradient><linearGradient id="SVGID_7_" gradientUnits="userSpaceOnUse" x1="117.467" x2="198.876" xlink:href="#lg3" y1="77.985" y2="77.985"/><linearGradient id="SVGID_8_" gradientUnits="userSpaceOnUse" x1="383.31" x2="464.719" xlink:href="#lg3" y1="343.829" y2="343.829"/><g><path d="m264.606 237.394-30.602-15.085-50.347 44.398 16.004 35.632 35.632 16.004 44.398-50.347z" fill="url(#SVGID_1_)"/><path d="m170.018 331.982-36.725-20.877-50.347 44.398 22.317 41.234 41.234 22.317 44.398-50.347z" fill="url(#SVGID_2_)"/><path d="m77.058 424.942-44.46-25.04-19.527 17.22c-16.703 14.73-17.514 40.501-1.766 56.249l17.323 17.323c15.749 15.749 41.519 14.937 56.249-1.766l17.22-19.527z" fill="url(#SVGID_3_)"/><path d="m264.606 237.394-30.602-15.085-39.537 34.865 4.47 1.39c21.252 6.606 37.893 23.247 44.499 44.499l1.39 4.47 34.865-39.537z" fill="#8b59c5"/><path d="m492.882 194.78-37.79-50.64 20.292-59.839c12.107-35.704-21.981-69.793-57.685-57.685l-59.839 20.292-50.64-37.79c-30.215-22.548-73.169-.662-72.687 37.036l.808 63.181-51.589 36.484c-30.781 21.768-23.24 69.384 12.762 80.575l60.338 18.756 18.756 60.338c11.191 36.002 58.806 43.543 80.575 12.762l36.484-51.589 63.181.808c37.696.48 59.582-42.474 37.034-72.689z" fill="url(#SVGID_4_)"/><g><path d="m429.959 141.794c-1.065 0-2.148-.171-3.212-.532-5.23-1.774-8.032-7.451-6.259-12.682l7.564-22.307c1.773-5.23 7.451-8.033 12.682-6.259 5.23 1.774 8.032 7.451 6.259 12.682l-7.564 22.307c-1.413 4.165-5.303 6.791-9.47 6.791z" fill="#ffe9cc"/></g><g><path d="m445.7 88.426c-1.065 0-2.148-.171-3.212-.532-5.23-1.774-8.032-7.452-6.259-12.682 2.028-5.981 1.552-7.326.657-8.573-3.22-4.487-2.193-10.735 2.294-13.955s10.735-2.193 13.955 2.294c7.521 10.48 3.815 21.406 2.035 26.657-1.413 4.166-5.303 6.791-9.47 6.791z" fill="#ffe9cc"/></g><g><ellipse cx="259.853" cy="124.73" fill="#ff75c0" rx="11.34" ry="14.111" transform="matrix(.707 -.707 .707 .707 -12.088 220.278)"/><ellipse cx="377.27" cy="242.147" fill="#ff75c0" rx="11.34" ry="14.111" transform="matrix(.707 -.707 .707 .707 -60.724 337.695)"/><path d="m294.094 124.7c4.798 4.798 8.165 10.288 9.944 15.653 1.511 4.559 7.19 6.119 10.845 3.003 1.026-.875 2.004-1.837 2.924-2.885 9.456-10.779 9.111-27.283-.765-37.679-10.878-11.451-28.983-11.626-40.083-.526-.563.563-1.097 1.145-1.602 1.742-3.065 3.628-1.428 9.253 3.08 10.747 5.365 1.778 10.857 5.146 15.657 9.945z" fill="#fff"/><path d="m311.757 190.243c-4.307-4.307-7.174-10.053-7.888-16.525-.663-6.003 3.666-11.407 9.669-12.069 6.003-.663 11.406 3.667 12.069 9.669.297 2.691 2.384 4.778 5.075 5.075 6.002.662 10.331 6.065 9.669 12.069-.663 6.003-6.066 10.332-12.069 9.669-6.473-.714-12.219-3.581-16.525-7.888z" fill="#383842"/><path d="m294.094 124.7c3.958 3.958 6.942 8.387 8.865 12.829 2.031-.814 3.931-2.041 5.577-3.686 6.513-6.513 6.513-17.071 0-23.584-6.512-6.512-17.071-6.512-23.584 0-1.645 1.645-2.872 3.545-3.686 5.577 4.441 1.923 8.87 4.906 12.828 8.864z" fill="#383842"/><path d="m377.3 207.906c4.798 4.798 8.165 10.288 9.944 15.653 1.512 4.559 7.19 6.119 10.845 3.003 1.026-.875 2.004-1.837 2.924-2.885 9.456-10.779 9.111-27.283-.765-37.679-10.878-11.451-28.983-11.626-40.083-.526-.563.563-1.097 1.145-1.602 1.742-3.065 3.628-1.428 9.253 3.08 10.746 5.365 1.779 10.857 5.146 15.657 9.946z" fill="#fff"/><path d="m377.3 207.906c3.958 3.958 6.942 8.387 8.865 12.829 2.031-.814 3.932-2.041 5.577-3.686 6.513-6.512 6.513-17.071 0-23.584s-17.071-6.512-23.584 0c-1.645 1.645-2.872 3.546-3.686 5.577 4.441 1.922 8.869 4.906 12.828 8.864z" fill="#383842"/></g><path d="m183.657 266.707-50.364 44.398 57.602 57.602 44.398-50.364z" fill="url(#SVGID_5_)"/><path d="m82.946 355.503-50.348 44.399 69.5 69.5 44.399-50.348z" fill="url(#SVGID_6_)"/><path d="m148.679 44.839c-2.56 12.144-11.335 21.096-23.776 23.669-4.34.898-7.437 4.746-7.437 9.275v.5c0 4.447 3.123 8.28 7.477 9.186 12.415 2.584 21.174 11.525 23.733 23.65.921 4.361 4.624 7.569 9.197 7.569h.596c4.432 0 8.28-3.096 9.178-7.436 2.572-12.437 11.52-21.212 23.659-23.774 4.361-.921 7.569-4.624 7.569-9.082v-.824c0-4.457-3.208-8.161-7.569-9.082-12.138-2.563-21.086-11.337-23.659-23.773-.898-4.34-4.746-7.437-9.293-7.437h-.597c-4.453.001-8.159 3.202-9.078 7.559z" fill="url(#SVGID_7_)"/><path d="m457.161 353.321c-12.144 2.56-21.096 11.335-23.669 23.776-.898 4.34-4.746 7.437-9.275 7.437h-.5c-4.447 0-8.28-3.123-9.186-7.477-2.584-12.415-11.525-21.174-23.651-23.733-4.361-.921-7.569-4.624-7.569-9.197v-.596c0-4.432 3.096-8.28 7.436-9.178 12.437-2.572 21.212-11.52 23.774-23.659.921-4.361 4.624-7.569 9.082-7.569h.824c4.457 0 8.161 3.208 9.082 7.569 2.563 12.138 11.337 21.086 23.773 23.659 4.34.898 7.437 4.746 7.437 9.293v.597c0 4.453-3.2 8.16-7.558 9.078z" fill="url(#SVGID_8_)"/></g></svg>