<svg id="Capa_1" enable-background="new 0 0 502 502" height="512" viewBox="0 0 502 502" width="512" xmlns="http://www.w3.org/2000/svg" xmlns:xlink="http://www.w3.org/1999/xlink"><linearGradient id="lg1"><stop offset="0" stop-color="#efefef"/><stop offset="1" stop-color="#d0d7d7"/></linearGradient><linearGradient id="SVGID_1_" gradientUnits="userSpaceOnUse" x1="252.831" x2="252.831" xlink:href="#lg1" y1="482.363" y2="234.291"/><linearGradient id="SVGID_2_" gradientUnits="userSpaceOnUse" x1="252.831" x2="252.831" y1="434.378" y2="270.267"><stop offset=".0206" stop-color="#76e6d5"/><stop offset="1" stop-color="#00c4a2"/></linearGradient><linearGradient id="lg2"><stop offset="0" stop-color="#d0d7d7"/><stop offset="1" stop-color="#efefef"/></linearGradient><linearGradient id="SVGID_3_" gradientUnits="userSpaceOnUse" x1="311.461" x2="400.481" xlink:href="#lg2" y1="332.867" y2="332.867"/><linearGradient id="SVGID_4_" gradientUnits="userSpaceOnUse" x1="252.831" x2="252.831" y1="328.625" y2="237.688"><stop offset="0" stop-color="#ff889e"/><stop offset=".9788" stop-color="#f5385d"/></linearGradient><linearGradient id="SVGID_5_" gradientUnits="userSpaceOnUse" x1="91.598" x2="202.973" xlink:href="#lg2" y1="51.421" y2="51.421"/><linearGradient id="SVGID_6_" gradientUnits="userSpaceOnUse" x1="82.619" x2="148.522" y1="77.343" y2="77.343"><stop offset=".0212" stop-color="#fdb0bf"/><stop offset="1" stop-color="#fd869c"/></linearGradient><linearGradient id="SVGID_7_" gradientUnits="userSpaceOnUse" x1="302.689" x2="414.064" xlink:href="#lg2" y1="51.421" y2="51.421"/><linearGradient id="SVGID_8_" gradientUnits="userSpaceOnUse" x1="357.14" x2="423.043" y1="77.343" y2="77.343"><stop offset="0" stop-color="#fd869c"/><stop offset=".9788" stop-color="#fdb0bf"/></linearGradient><radialGradient id="SVGID_9_" cx="252.831" cy="311.186" gradientUnits="userSpaceOnUse" r="29.746"><stop offset=".0223" stop-color="#f9f2ab"/><stop offset=".9994" stop-color="#f6e66a"/></radialGradient><linearGradient id="SVGID_10_" gradientUnits="userSpaceOnUse" x1="106.885" x2="398.776" xlink:href="#lg2" y1="155.568" y2="155.568"/><linearGradient id="SVGID_11_" gradientUnits="userSpaceOnUse" x1="277.774" x2="361.349" xlink:href="#lg1" y1="468.666" y2="468.666"/><linearGradient id="SVGID_12_" gradientUnits="userSpaceOnUse" x1="144.313" x2="227.888" xlink:href="#lg2" y1="468.666" y2="468.666"/><linearGradient id="SVGID_13_" gradientUnits="userSpaceOnUse" x1="120.745" x2="120.745" xlink:href="#lg1" y1="366.147" y2="288.249"/><linearGradient id="SVGID_14_" gradientUnits="userSpaceOnUse" x1="78.958" x2="162.532" xlink:href="#lg2" y1="278.856" y2="278.856"/><g><path d="m387.152 379.176c0 80.018-54.304 103.187-134.321 103.187s-134.321-23.169-134.321-103.187 54.304-144.885 134.321-144.885 134.321 64.867 134.321 144.885z" fill="url(#SVGID_1_)"/><circle cx="252.831" cy="352.323" fill="url(#SVGID_2_)" r="82.055"/><path d="m387.044 297.981-19.126-19.125-45.778 45.778c-14.239 14.239-14.239 37.325 0 51.564 14.239 14.239 37.325 14.239 51.564 0l13.339-13.339c17.917-17.915 17.917-46.962.001-64.878z" fill="url(#SVGID_3_)"/><path d="m135.058 237.688v72.477c20.483 11.889 44.094 18.459 68.856 18.459h97.834c.248 0 .495-.001.743-.002 37.742-.2 68.114-31.136 68.114-68.878v-22.057h-235.547z" fill="url(#SVGID_4_)"/><path d="m91.598 18.439c8.747-11.789 23.028-19.215 39.01-18.374 49.938 2.632 72.365 40.171 72.365 40.171l-56.023 62.608z" fill="url(#SVGID_5_)"/><path d="m148.521 87.931c0 5.114-.54 10.108-1.571 14.911l-29.903 33.405c-25.279-31.022-32.995-63.347-34.356-88.006-.62-11.178 2.792-21.566 8.907-29.803 32.465 6.476 56.923 35.127 56.923 69.493z" fill="url(#SVGID_6_)"/><path d="m414.064 18.439c-8.747-11.789-23.028-19.215-39.01-18.374-49.938 2.632-72.365 40.171-72.365 40.171l56.023 62.608z" fill="url(#SVGID_7_)"/><path d="m357.14 87.931c0 5.114.54 10.108 1.571 14.911l29.903 33.405c25.279-31.024 32.995-63.348 34.356-88.007.62-11.178-2.792-21.566-8.907-29.803-32.464 6.477-56.923 35.128-56.923 69.494z" fill="url(#SVGID_8_)"/><circle cx="252.831" cy="311.186" fill="url(#SVGID_9_)" r="29.746"/><path d="m197.119 284.248-29.249-38.727-32.813-7.833v55.921c13.318 8.993 28.376 15.334 44.403 18.55 10.964 2.2 21.223-6.098 21.223-17.28 0-3.837-1.251-7.569-3.564-10.631z" fill="#f9496e"/><path d="m117.398 235.514c15.932 31.284 48.427 53.08 86.516 53.08h97.834c38.089 0 70.584-21.797 86.516-53.08l-4.178-10.008 11.713-10.008c2.852-11.158 3.733-23.037 2.302-35.237l-.18-1.511-10.36-8.146 8.018-11.779-1.221-10.408c-8.436-71.775-69.263-125.876-141.528-125.876-36.127 0-69.403 13.53-94.702 36.027-25.289 22.497-42.602 53.961-46.826 89.848l-1.221 10.408 6.798 11.67-9.139 8.255-.18 1.511c-1.431 12.199-.55 24.078 2.302 35.237l12.498 10.008z" fill="url(#SVGID_10_)"/><g><path d="m341.487 105.296c-2.874 0-5.726-1.232-7.704-3.618-2.797-3.374-5.847-6.606-9.063-9.605-4.039-3.766-4.261-10.094-.494-14.133 3.766-4.039 10.094-4.26 14.133-.494 3.839 3.58 7.479 7.438 10.82 11.467 3.525 4.252 2.936 10.556-1.316 14.081-1.865 1.548-4.127 2.302-6.376 2.302z" fill="#fff"/></g><g><path d="m307.32 76.652c-1.637 0-3.296-.403-4.83-1.251-6.775-3.746-14.028-6.738-21.558-8.893-5.31-1.519-8.383-7.055-6.863-12.365 1.519-5.31 7.055-8.383 12.365-6.863 8.98 2.57 17.639 6.142 25.734 10.618 4.833 2.673 6.585 8.757 3.913 13.59-1.825 3.3-5.24 5.164-8.761 5.164z" fill="#fff"/></g><g fill="#77718c"><path d="m148.521 215.499h-38.659c1.771 6.995 4.313 13.7 7.536 20.015h31.124c5.527 0 10.008-4.481 10.008-10.008-.001-5.527-4.481-10.007-10.009-10.007z"/><path d="m357.14 215.499c-5.527 0-10.008 4.481-10.008 10.008s4.481 10.008 10.008 10.008h31.124c3.222-6.315 5.764-13.02 7.536-20.015h-38.66z"/><path d="m356.89 169.464c8.668-4.189 22.378-9.41 38.689-10.639l2.342 19.925c-13.573.885-25.168 5.331-32.273 8.742-4.422 2.124-9.728.722-12.482-3.338-.056-.082-.112-.165-.168-.247-3.388-4.993-1.541-11.816 3.892-14.443z"/><path d="m148.772 169.464c-8.668-4.189-22.378-9.41-38.689-10.639l-2.342 19.925c13.573.885 25.168 5.331 32.273 8.742 4.422 2.124 9.728.722 12.482-3.338.056-.082.112-.165.168-.247 3.387-4.993 1.541-11.816-3.892-14.443z"/></g><path d="m319.561 435.331c-23.079 0-41.787 18.709-41.787 41.787 0 13.742 11.14 24.882 24.882 24.882h33.811c13.742 0 24.882-11.14 24.882-24.882 0-23.078-18.709-41.787-41.788-41.787z" fill="url(#SVGID_11_)"/><path d="m186.1 435.331c23.079 0 41.787 18.709 41.787 41.787 0 13.742-11.14 24.882-24.882 24.882h-33.811c-13.742 0-24.882-11.14-24.882-24.882.001-23.078 18.71-41.787 41.788-41.787z" fill="url(#SVGID_12_)"/><path d="m87.935 288.249v45.088c0 18.121 14.69 32.81 32.81 32.81 18.121 0 32.81-14.69 32.81-32.81v-45.088z" fill="url(#SVGID_13_)"/><g><ellipse cx="161.74" cy="187.218" fill="#fd9bae" rx="15.481" ry="12.441"/><ellipse cx="343.921" cy="187.218" fill="#fd9bae" rx="15.481" ry="12.441"/><circle cx="188.281" cy="156.52" fill="#fff" r="30.698"/><ellipse cx="200.683" cy="156.52" fill="#383842" rx="18.296" ry="18.296" transform="matrix(.23 -.973 .973 .23 2.242 315.874)"/><circle cx="317.381" cy="156.52" fill="#fff" r="30.698"/><g fill="#383842"><ellipse cx="329.718" cy="156.52" rx="18.296" ry="18.296" transform="matrix(.707 -.707 .707 .707 -14.104 278.99)"/><ellipse cx="252.831" cy="179.791" rx="13.735" ry="17.985"/></g></g><path d="m137.65 338.19c5.521 0 10.833-.896 15.813-2.528.054-.769.091-1.542.091-2.326v-45.087h-65.619v45.087c0 .783.037 1.557.091 2.325 4.981 1.633 10.293 2.529 15.813 2.529z" fill="#d3d1d8"/><path d="m120.745 245.521c-23.079 0-41.787 18.709-41.787 41.787 0 13.742 11.14 24.882 24.882 24.882h33.812c13.742 0 24.882-11.14 24.882-24.882-.002-23.078-18.711-41.787-41.789-41.787z" fill="url(#SVGID_14_)"/></g></svg>