<svg id="Capa_1" enable-background="new 0 0 502 502" height="512" viewBox="0 0 502 502" width="512" xmlns="http://www.w3.org/2000/svg" xmlns:xlink="http://www.w3.org/1999/xlink"><linearGradient id="lg1"><stop offset="0" stop-color="#efefef"/><stop offset="1" stop-color="#d0d7d7"/></linearGradient><linearGradient id="SVGID_1_" gradientUnits="userSpaceOnUse" x1="251" x2="251" xlink:href="#lg1" y1="502" y2="361.309"/><linearGradient id="lg2"><stop offset="0" stop-color="#4f4c5f"/><stop offset=".9783" stop-color="#6a647f"/></linearGradient><linearGradient id="SVGID_2_" gradientUnits="userSpaceOnUse" x1="9.254" x2="160.494" xlink:href="#lg2" y1="75.62" y2="75.62"/><linearGradient id="SVGID_3_" gradientUnits="userSpaceOnUse" x1="48.644" x2="121.104" y1="75.62" y2="75.62"><stop offset=".0212" stop-color="#ffb3dd"/><stop offset="1" stop-color="#ff88ca"/></linearGradient><linearGradient id="lg3"><stop offset=".0217" stop-color="#6a647f"/><stop offset="1" stop-color="#4f4c5f"/></linearGradient><linearGradient id="SVGID_4_" gradientUnits="userSpaceOnUse" x1="341.506" x2="492.746" xlink:href="#lg3" y1="75.62" y2="75.62"/><linearGradient id="SVGID_5_" gradientUnits="userSpaceOnUse" x1="380.896" x2="453.356" y1="75.62" y2="75.62"><stop offset="0" stop-color="#ff88ca"/><stop offset=".9788" stop-color="#ffb3dd"/></linearGradient><linearGradient id="SVGID_6_" gradientUnits="userSpaceOnUse" x1="34.98" x2="467.02" xlink:href="#lg1" y1="197.669" y2="197.669"/><linearGradient id="SVGID_7_" gradientUnits="userSpaceOnUse" x1="158.098" x2="232.073" y1="338.453" y2="338.453"><stop offset=".0206" stop-color="#76e6d5"/><stop offset="1" stop-color="#00c4a2"/></linearGradient><linearGradient id="SVGID_8_" gradientUnits="userSpaceOnUse" x1="251" x2="251" y1="456.184" y2="291.908"><stop offset="0" stop-color="#00c4a2"/><stop offset=".9794" stop-color="#76e6d5"/></linearGradient><linearGradient id="SVGID_9_" gradientUnits="userSpaceOnUse" x1="116.209" x2="230.206" xlink:href="#lg3" y1="398.06" y2="398.06"/><linearGradient id="SVGID_10_" gradientUnits="userSpaceOnUse" x1="271.794" x2="385.791" xlink:href="#lg2" y1="398.06" y2="398.06"/><g><path d="m121.104 451.309s-7.429 8.032-4.895 50.691h269.583c2.534-42.659-4.895-50.691-4.895-50.691l-25.08-53.249-104.817-36.751-104.816 32.466z" fill="url(#SVGID_1_)"/><circle cx="84.874" cy="75.62" fill="url(#SVGID_2_)" r="75.62"/><circle cx="84.874" cy="75.62" fill="url(#SVGID_3_)" r="36.23"/><circle cx="417.126" cy="75.62" fill="url(#SVGID_4_)" r="75.62"/><circle cx="417.126" cy="75.62" fill="url(#SVGID_5_)" r="36.23"/><path d="m467.02 207.625c0 119.305-96.715 186.15-216.02 186.15s-216.02-66.845-216.02-186.15 96.715-206.063 216.02-206.063 216.02 86.759 216.02 206.063z" fill="url(#SVGID_6_)"/><g><path d="m407.871 120.914c-3.264 0-6.464-1.596-8.382-4.533-4.797-7.344-10.173-14.268-15.979-20.58-3.739-4.064-3.475-10.391.589-14.129 4.065-3.74 10.391-3.476 14.13.589 6.549 7.119 12.607 14.919 18.004 23.183 3.02 4.624 1.72 10.821-2.904 13.841-1.686 1.103-3.583 1.629-5.458 1.629z" fill="#fff"/></g><g><path d="m365.349 75.33c-2.108 0-4.234-.664-6.042-2.038-3.18-2.416-6.51-4.729-9.899-6.873-4.667-2.954-6.055-9.131-3.101-13.798s9.131-6.054 13.798-3.102c3.867 2.448 7.669 5.088 11.301 7.847 4.398 3.341 5.254 9.615 1.913 14.012-1.967 2.59-4.951 3.952-7.97 3.952z" fill="#fff"/></g><ellipse cx="103.088" cy="239.886" fill="#ffb3dd" rx="25.138" ry="20.202"/><ellipse cx="398.912" cy="239.886" fill="#ffb3dd" rx="25.138" ry="20.202"/><circle cx="146.184" cy="190.039" fill="#6a647f" r="49.847"/><circle cx="355.816" cy="190.039" fill="#6a647f" r="49.847"/><path d="m129.724 202.47c-1.222 0-2.46-.299-3.606-.929-3.63-1.995-4.955-6.556-2.959-10.186 4.688-8.526 13.295-13.617 23.025-13.618 9.73 0 18.338 5.091 23.026 13.618 1.996 3.63.671 8.19-2.959 10.186s-8.19.67-10.186-2.959c-2.012-3.659-5.706-5.845-9.882-5.845-4.175.001-7.869 2.186-9.881 5.845-1.364 2.483-3.93 3.888-6.578 3.888z" fill="#383842"/><path d="m372.276 202.47c-2.647.001-5.214-1.404-6.579-3.888-2.012-3.659-5.706-5.844-9.881-5.845-4.176 0-7.87 2.186-9.882 5.845-1.995 3.629-6.556 4.952-10.186 2.959-3.63-1.995-4.955-6.556-2.959-10.186 4.688-8.526 13.296-13.618 23.026-13.618 9.73.001 18.338 5.092 23.025 13.618 1.996 3.63.67 8.19-2.959 10.186-1.145.63-2.384.929-3.605.929z" fill="#383842"/><g><path d="m269.856 261.723h-37.712c-10.515 0-19.04-8.524-19.04-19.04 0-10.515 8.524-19.04 19.04-19.04h37.712c10.515 0 19.04 8.524 19.04 19.04 0 10.516-8.525 19.04-19.04 19.04z" fill="#383842"/></g><path d="m275.328 196.753c0 8.727-10.892 15.802-24.328 15.802s-24.328-7.075-24.328-15.802 48.656-8.727 48.656 0z" fill="#383842"/><path d="m217.116 316.423c-12.369-12.369-29.504-17.066-45.494-14.093-6.426 1.195-11.464 6.233-12.659 12.659-2.974 15.99 1.723 33.125 14.093 45.494 14.948 14.948 36.857 18.691 55.293 11.232 7.458-18.435 3.715-40.344-11.233-55.292z" fill="url(#SVGID_7_)"/><path d="m270.381 291.908h-38.762c-10.225 0-18.515 8.289-18.515 18.515v127.247c0 10.225 8.289 18.515 18.515 18.515h38.762c10.225 0 18.515-8.289 18.515-18.515v-127.247c0-10.226-8.29-18.515-18.515-18.515z" fill="url(#SVGID_8_)"/><path d="m205.367 364.572h91.267v25.473h-91.267z" fill="#93ebdc"/><path d="m184.812 412.92-38.627-19.145-25.081 57.534s-5.683 6.146-5.413 36.229l20.519-13.85c14.736-9.947 30.159-17.719 46.069-23.239 8.19-2.841 13.752-10.462 13.752-19.13v-.316c.001-7.67-4.347-14.677-11.219-18.083z" fill="#d3d1d8"/><path d="m202.456 323.923c-5.881 0-10.648 4.767-10.648 10.648v28.582h21.296v-28.582c0-5.881-4.767-10.648-10.648-10.648z" fill="#00c4a2"/><path d="m228.812 371.531c-5.077-17.963-22.841-29.264-41.259-26.229-98.195 16.184-66.449 106.007-66.449 106.007 29.676-20.032 57.908-29.451 79.498-33.807 21.007-4.24 34.038-25.349 28.21-45.971z" fill="url(#SVGID_9_)"/><path d="m273.188 371.531c5.077-17.963 22.841-29.264 41.259-26.229 98.195 16.184 66.449 106.007 66.449 106.007-29.676-20.032-57.908-29.451-79.498-33.807-21.007-4.24-34.038-25.349-28.21-45.971z" fill="url(#SVGID_10_)"/></g></svg>