<svg id="Capa_1" enable-background="new 0 0 502 502" height="512" viewBox="0 0 502 502" width="512" xmlns="http://www.w3.org/2000/svg" xmlns:xlink="http://www.w3.org/1999/xlink"><linearGradient id="SVGID_1_" gradientUnits="userSpaceOnUse" x1="53.482" x2="439.914" y1="347.937" y2="347.937"><stop offset="0" stop-color="#ff889e"/><stop offset=".9788" stop-color="#f5385d"/></linearGradient><linearGradient id="SVGID_2_" gradientUnits="userSpaceOnUse" x1="0" x2="314.229" y1="277.522" y2="277.522"><stop offset=".0206" stop-color="#76e6d5"/><stop offset="1" stop-color="#00c4a2"/></linearGradient><linearGradient id="SVGID_3_" gradientUnits="userSpaceOnUse" x1="11.495" x2="354.425" y1="328.082" y2="328.082"><stop offset=".0223" stop-color="#a4e6ff"/><stop offset=".9994" stop-color="#5bd6fd"/></linearGradient><linearGradient id="SVGID_4_" gradientUnits="userSpaceOnUse" x1="358.452" x2="358.452" y1="279.689" y2="3.994"><stop offset=".0223" stop-color="#f9f2ab"/><stop offset=".9994" stop-color="#f6e66a"/></linearGradient><g><path d="m354.425 197.867 85.489 80.075s-176.127 61.968-320.647 200.417c-17.8 17.053-42.745 23.297-65.786 17.585l103.632-218.422z" fill="url(#SVGID_1_)"/><path d="m11.495 466.147c-7.472-11.443-11.495-24.883-11.495-38.629 0-8.526 1.546-17.176 4.78-25.528 101.836-262.897 233.305-313.093 233.305-313.093l76.144 71.323z" fill="url(#SVGID_2_)"/><path d="m354.425 197.867-55.376 78.652s-121.438 62.582-245.567 219.425c-6.387-1.576-12.631-4.074-18.537-7.523-9.724-5.671-17.636-13.368-23.45-22.273 117.302-221.288 259.662-284.28 259.662-284.28l43.072-21.649z" fill="url(#SVGID_3_)"/><path d="m354.425 197.867-30.252 61.638c-1.651 3.363-2.38 7.104-2.115 10.841.885 12.459 12.288 21.381 24.62 19.397 15.625-2.514 31.872.01 46.252 7.57 29.077-13.07 46.984-19.371 46.984-19.371z" fill="#e3254c"/><path d="m478.816 88.899-66.413-9.65-29.701-60.18c-9.92-20.1-38.581-20.1-48.501 0l-29.701 60.18-66.413 9.65c-22.181 3.223-31.038 30.482-14.988 46.127l48.057 46.844-11.345 66.144c-3.789 22.092 19.399 38.938 39.238 28.508l59.401-31.229 59.401 31.229c19.84 10.43 43.027-6.416 39.238-28.508l-11.345-66.144 48.057-46.844c16.053-15.645 7.196-42.904-14.985-46.127z" fill="url(#SVGID_4_)"/><g><path d="m380.546 92.751c-3.62 0-7.113-1.971-8.891-5.408-.882-1.705-1.674-3.304-2.423-4.889-2.359-4.994-.224-10.954 4.77-13.313 4.993-2.359 10.954-.223 13.313 4.771.645 1.365 1.333 2.753 2.104 4.243 2.537 4.906.617 10.939-4.288 13.477-1.468.759-3.039 1.119-4.585 1.119z" fill="#fffcdc"/></g><g><path d="m364.749 61.517c-3.687 0-7.233-2.047-8.975-5.577l-5.219-10.576c-2.444-4.953-.41-10.949 4.542-13.393 4.953-2.444 10.949-.411 13.393 4.542l5.219 10.575c2.444 4.953.411 10.949-4.541 13.393-1.423.703-2.933 1.036-4.419 1.036z" fill="#fffcdc"/></g><g><ellipse cx="280.55" cy="152.539" fill="#fd9bae" rx="13.24" ry="10.64"/><ellipse cx="436.354" cy="152.539" fill="#fd9bae" rx="13.24" ry="10.64"/><circle cx="303.248" cy="126.286" fill="#fff" r="26.253"/><ellipse cx="313.855" cy="126.286" fill="#383842" rx="15.647" ry="15.647" transform="matrix(.23 -.973 .973 .23 118.838 402.73)"/><circle cx="413.656" cy="126.286" fill="#fff" r="26.253"/><g fill="#383842"><ellipse cx="424.207" cy="126.286" rx="15.647" ry="15.647" transform="matrix(.707 -.707 .707 .707 34.95 336.948)"/><ellipse cx="358.452" cy="146.187" rx="11.747" ry="15.381"/></g></g></g></svg>